<?xml version="1.0" encoding="UTF-8"?>
<svg xmlns="http://www.w3.org/2000/svg" xmlns:xlink="http://www.w3.org/1999/xlink" width="30px" height="30px" viewBox="0 0 600 600" version="1.1">
<g id="surface1">
<path style=" stroke:none;fill-rule:nonzero;fill:rgb(17.647059%,32.156863%,48.627451%);fill-opacity:1;" d="M 55.164062 600 C 40.695312 600 26.710938 594.308594 16.207031 583.808594 C 2.847656 570.445312 -2.726562 551.445312 1.300781 532.984375 L 99.476562 82.746094 C 104.089844 61.585938 120.667969 45.015625 141.710938 40.535156 C 258.96875 15.5625 379.507812 51.199219 464.164062 135.851562 C 548.820312 220.507812 584.453125 341.050781 559.472656 458.296875 C 554.988281 479.335938 538.417969 495.914062 517.261719 500.527344 L 449.042969 515.402344 C 439.253906 517.539062 429.585938 511.328125 427.449219 501.535156 C 425.3125 491.746094 431.519531 482.074219 441.3125 479.941406 L 509.527344 465.066406 C 516.785156 463.484375 522.457031 457.855469 523.976562 450.734375 C 546.378906 345.558594 514.425781 237.441406 438.5 161.515625 C 362.574219 85.589844 254.449219 53.636719 149.265625 76.027344 C 142.144531 77.546875 136.515625 83.21875 134.9375 90.476562 L 36.757812 540.714844 C 35.359375 547.144531 37.222656 553.492188 41.871094 558.144531 C 46.523438 562.796875 52.875 564.664062 59.300781 563.257812 L 350.578125 499.726562 C 360.371094 497.59375 370.039062 503.796875 372.175781 513.59375 C 374.3125 523.382812 368.101562 533.054688 358.3125 535.1875 L 67.03125 598.71875 C 63.082031 599.578125 59.101562 600 55.164062 600 Z M 55.164062 600 "/>
<path style=" stroke:none;fill-rule:nonzero;fill:rgb(53.72549%,81.176471%,94.117647%);fill-opacity:1;" d="M 114.917969 101.148438 C 220.785156 63.847656 343.507812 87.449219 428.035156 171.976562 C 512.5625 256.5 536.164062 379.226562 498.863281 485.09375 L 547.34375 475.667969 C 562.4375 472.734375 574.265625 460.8125 576.804688 445.648438 C 595.703125 332.628906 561.65625 212.394531 474.632812 125.375 C 387.613281 38.351562 267.382812 4.304688 154.363281 23.207031 C 139.199219 25.742188 127.277344 37.574219 124.34375 52.667969 Z M 114.917969 101.148438 "/>
<path style=" stroke:none;fill-rule:nonzero;fill:rgb(17.647059%,32.156863%,48.627451%);fill-opacity:1;" d="M 498.859375 503.238281 C 493.644531 503.238281 488.609375 500.984375 485.125 496.949219 C 480.875 492.023438 479.585938 485.199219 481.746094 479.0625 C 517.789062 376.773438 491.667969 261.269531 415.203125 184.808594 C 361.90625 131.511719 290.925781 102.160156 215.332031 102.160156 C 183.027344 102.160156 151.269531 107.578125 120.945312 118.261719 C 114.8125 120.425781 107.984375 119.136719 103.058594 114.886719 C 98.132812 110.632812 95.859375 104.074219 97.101562 97.683594 L 106.527344 49.199219 C 110.902344 26.699219 128.921875 9.058594 151.363281 5.308594 C 172.429688 1.785156 193.953125 0 215.332031 0 C 318.246094 0 414.890625 39.96875 487.464844 112.542969 C 575.144531 200.222656 615.234375 325.871094 594.703125 448.644531 C 590.949219 471.089844 573.308594 489.109375 550.8125 493.484375 L 502.328125 502.90625 C 501.171875 503.128906 500.011719 503.238281 498.859375 503.238281 Z M 215.332031 65.871094 C 300.621094 65.871094 380.714844 98.996094 440.867188 159.144531 C 484.1875 202.460938 513.925781 256.941406 526.871094 316.691406 C 537.277344 364.71875 536.515625 414.234375 524.820312 461.5625 L 543.882812 457.855469 C 551.601562 456.355469 557.640625 450.246094 558.90625 442.65625 C 577.511719 331.421875 541.210938 217.609375 461.804688 138.207031 C 396.082031 72.484375 308.550781 36.292969 215.332031 36.292969 C 195.953125 36.292969 176.445312 37.910156 157.355469 41.101562 C 149.765625 42.371094 143.65625 48.410156 142.15625 56.128906 L 138.449219 75.191406 C 163.519531 68.996094 189.273438 65.871094 215.332031 65.871094 Z M 215.332031 65.871094 "/>
<path style=" stroke:none;fill-rule:nonzero;fill:rgb(17.647059%,32.156863%,48.627451%);fill-opacity:1;" d="M 156.179688 578.851562 C 149.640625 578.851562 143.472656 575.304688 140.25 569.382812 C 118.105469 528.726562 125.527344 477.441406 158.300781 444.664062 C 178.179688 424.789062 204.609375 413.839844 232.722656 413.839844 C 260.835938 413.839844 287.265625 424.789062 307.144531 444.664062 C 328.660156 466.179688 339.800781 495.933594 337.707031 526.300781 C 337.152344 534.351562 331.351562 541.066406 323.46875 542.785156 L 160.050781 578.433594 C 158.757812 578.714844 157.460938 578.851562 156.179688 578.851562 Z M 232.722656 450.132812 C 214.304688 450.132812 196.988281 457.304688 183.964844 470.332031 C 165.671875 488.625 159.425781 515.707031 166.9375 539.785156 L 301.132812 510.515625 C 299.25 495.429688 292.410156 481.257812 281.480469 470.332031 C 268.457031 457.304688 251.140625 450.132812 232.722656 450.132812 Z M 232.722656 450.132812 "/>
<path style=" stroke:none;fill-rule:nonzero;fill:rgb(17.647059%,32.156863%,48.627451%);fill-opacity:1;" d="M 73.429688 380.125 C 66.910156 380.125 60.363281 379.480469 53.976562 378.21875 C 49.195312 377.273438 44.996094 374.445312 42.324219 370.367188 C 39.648438 366.292969 38.730469 361.3125 39.769531 356.550781 L 74.515625 197.210938 C 75.550781 192.457031 78.453125 188.324219 82.566406 185.726562 C 86.679688 183.132812 91.664062 182.296875 96.394531 183.410156 C 114.386719 187.636719 130.832031 196.804688 143.957031 209.929688 C 182.828125 248.800781 182.828125 312.050781 143.957031 350.921875 C 125.125 369.75 100.078125 380.125 73.429688 380.125 Z M 105.453125 225.675781 L 79.753906 343.523438 C 94.316406 342.089844 107.816406 335.730469 118.292969 325.257812 C 143.015625 300.539062 143.011719 260.3125 118.292969 235.59375 C 114.425781 231.722656 110.105469 228.398438 105.453125 225.675781 Z M 105.453125 225.675781 "/>
<path style=" stroke:none;fill-rule:nonzero;fill:rgb(53.72549%,81.176471%,94.117647%);fill-opacity:1;" d="M 384.03125 263.160156 C 384.03125 303.246094 351.535156 335.746094 311.445312 335.746094 C 271.359375 335.746094 238.859375 303.246094 238.859375 263.160156 C 238.859375 223.070312 271.359375 190.574219 311.445312 190.574219 C 351.535156 190.574219 384.03125 223.070312 384.03125 263.160156 Z M 384.03125 263.160156 "/>
<path style=" stroke:none;fill-rule:nonzero;fill:rgb(17.647059%,32.156863%,48.627451%);fill-opacity:1;" d="M 311.445312 353.890625 C 261.417969 353.890625 220.714844 313.1875 220.714844 263.160156 C 220.714844 213.128906 261.417969 172.425781 311.445312 172.425781 C 361.476562 172.425781 402.179688 213.128906 402.179688 263.160156 C 402.179688 313.1875 361.480469 353.890625 311.445312 353.890625 Z M 311.445312 208.71875 C 281.429688 208.71875 257.007812 233.140625 257.007812 263.160156 C 257.007812 293.175781 281.429688 317.597656 311.445312 317.597656 C 341.464844 317.597656 365.886719 293.175781 365.886719 263.160156 C 365.886719 233.140625 341.464844 208.71875 311.445312 208.71875 Z M 311.445312 208.71875 "/>
</g>
</svg>
